<?xml version="1.0"?>
<svg xmlns="http://www.w3.org/2000/svg" xmlns:xlink="http://www.w3.org/1999/xlink" xmlns:svgjs="http://svgjs.com/svgjs" version="1.1" width="512" height="512" x="0" y="0" viewBox="0 0 512 512" style="enable-background:new 0 0 512 512" xml:space="preserve" class=""><g><g xmlns="http://www.w3.org/2000/svg"><circle cx="51.368" cy="66.072" r="10.519" fill="#3151ad" data-original="#000000" style="" class=""/><circle cx="91.369" cy="66.072" r="10.519" fill="#3151ad" data-original="#000000" style="" class=""/><circle cx="131.37" cy="66.072" r="10.519" fill="#3151ad" data-original="#000000" style="" class=""/><path d="m504.074 443.95c-2.988-2.971-6.535-5.163-10.441-6.478-.026-5.56-2.22-10.998-6.229-15.007l-47.106-47.106c16.132-24.163 24.796-52.574 24.796-82.343 0-39.731-15.432-77.044-43.454-105.066-28.063-28.064-65.376-43.519-105.065-43.519s-77.003 15.455-105.066 43.519c-28.022 28.021-43.454 65.334-43.454 105.066 0 18.833 3.473 37.12 10.105 54.134h-151.412c-6.704 0-12.158-5.454-12.158-12.158v-228.68h428.462v75.31c0 4.029 3.266 7.295 7.295 7.295s7.295-3.266 7.295-7.295v-133.306c0-14.749-11.999-26.748-26.748-26.748h-279.769c-4.029 0-7.295 3.266-7.295 7.295s3.266 7.295 7.295 7.295h279.769c6.704 0 12.158 5.454 12.158 12.158v43.406h-428.462v-43.406c0-6.704 5.454-12.158 12.158-12.158h87.05c4.029 0 7.295-3.266 7.295-7.295s-3.266-7.295-7.295-7.295h-87.05c-14.749 0-26.748 11.999-26.748 26.748v286.675c0 14.749 11.999 26.748 26.748 26.748h158.044c6.911 13.24 15.865 25.49 26.717 36.341 28.063 28.064 65.376 43.52 105.066 43.52 28.789 0 56.324-8.139 79.989-23.316l47.51 47.51c4.009 4.01 9.447 6.204 15.007 6.229 1.324 3.932 3.536 7.499 6.536 10.499 10.529 10.923 29.607 10.492 39.516-1.054 9.555-10.608 9.08-27.44-1.059-37.518zm-282.248-56.185c-25.266-25.266-39.18-58.915-39.18-94.749s13.915-69.483 39.18-94.749c25.308-25.308 58.956-39.246 94.749-39.246 35.792 0 69.441 13.938 94.749 39.246 25.266 25.266 39.18 58.915 39.18 94.749s-13.915 69.483-39.18 94.749c-25.308 25.308-58.957 39.246-94.749 39.246s-69.442-13.938-94.749-39.246zm272.465 83.941c-4.612 5.364-13.472 5.596-18.358.502-1.983-1.983-3.223-4.501-3.586-7.278-.576-5.366-6.308-9.192-11.491-7.709-2.344.612-4.763-.039-6.466-1.742l-45.791-45.79c8.332-6.584 16.16-14.261 22.909-22.485l45.579 45.579c1.702 1.702 2.353 4.119 1.743 6.462-1.48 5.176 2.329 10.919 7.692 11.493 2.771.359 5.284 1.59 7.266 3.561 4.708 4.678 4.934 12.488.503 17.407z" fill="#3151ad" data-original="#000000" style="" class=""/><path d="m400.885 208.706c-22.52-22.52-52.462-34.922-84.309-34.922-31.848 0-61.79 12.402-84.31 34.922s-34.923 52.462-34.923 84.31 12.403 61.789 34.923 84.31c13.181 13.182 28.714 22.844 46.166 28.717 3.819 1.286 7.956-.768 9.241-4.587 1.285-3.818-.769-7.956-4.587-9.241-15.3-5.149-28.927-13.629-40.503-25.205-19.765-19.765-30.649-46.042-30.649-73.993s10.885-54.229 30.649-73.993 46.042-30.648 73.993-30.648 54.228 10.885 73.993 30.648c40.8 40.8 40.8 107.186 0 147.986-19.765 19.764-46.042 30.648-73.993 30.648-4.029 0-7.295 3.266-7.295 7.295s3.266 7.295 7.295 7.295c31.848 0 61.789-12.402 84.309-34.922 46.488-46.489 46.488-122.131 0-168.62z" fill="#3151ad" data-original="#000000" style="" class=""/><path d="m327.481 321.546c0-4.029-3.266-7.295-7.295-7.295h-16.748v-13.94h14.975c4.029 0 7.295-3.266 7.295-7.295s-3.266-7.295-7.295-7.295h-14.975v-13.94h16.748c4.029 0 7.295-3.266 7.295-7.295s-3.266-7.295-7.295-7.295h-24.043c-4.029 0-7.295 3.266-7.295 7.295v57.061c0 4.029 3.266 7.295 7.295 7.295h24.043c4.029-.001 7.295-3.267 7.295-7.296z" fill="#3151ad" data-original="#000000" style="" class=""/><path d="m250.986 314.514c-5.697 0-11.178-2.295-14.662-6.14-2.705-2.985-7.318-3.212-10.305-.507-2.985 2.706-3.212 7.319-.507 10.305 6.204 6.845 15.727 10.932 25.473 10.932 12.183 0 22.414-7.778 24.328-18.494 1.44-8.068-2.217-18.605-16.803-23.985-7.056-2.603-13.627-5.437-15.662-6.328-1.519-1.229-1.467-2.938-1.365-3.65.143-.998.87-3.438 4.512-4.535 8.054-2.427 15.533 3.466 15.758 3.646 3.083 2.558 7.658 2.15 10.241-.921 2.592-3.084 2.194-7.686-.89-10.279-.546-.458-13.535-11.171-29.317-6.416-7.986 2.406-13.636 8.702-14.746 16.432-1.097 7.571 2.474 15.141 9.219 18.764.333.149 8.266 3.68 17.2 6.975 2.502.923 8.24 3.524 7.489 7.732-.565 3.181-4.448 6.469-9.963 6.469z" fill="#3151ad" data-original="#000000" style="" class=""/><path d="m409.937 293.016c0-19.899-16.189-36.089-36.089-36.089-19.899 0-36.088 16.189-36.088 36.089 0 19.899 16.189 36.088 36.088 36.088 19.9 0 36.089-16.189 36.089-36.088zm-57.586 0c0-11.854 9.644-21.499 21.498-21.499s21.499 9.644 21.499 21.499c0 11.854-9.644 21.498-21.499 21.498-11.854 0-21.498-9.644-21.498-21.498z" fill="#3151ad" data-original="#000000" style="" class=""/><path d="m170.061 191.773c0-38.485-31.31-69.795-69.795-69.795s-69.795 31.31-69.795 69.795 31.31 69.795 69.795 69.795 69.795-31.31 69.795-69.795zm-15.087-7.295h-15.687c-.823-14.696-4.123-28.411-9.506-39.322 13.477 8.563 23.001 22.796 25.193 39.322zm-62.003-45.085v45.085h-17.115c1.366-22.155 8.817-38.746 17.115-45.085zm0 59.675v45.084c-8.298-6.339-15.749-22.93-17.114-45.084zm14.59 45.085v-45.085h17.115c-1.365 22.155-8.817 38.746-17.115 45.085zm0-59.675v-45.085c8.298 6.339 15.75 22.93 17.115 45.085zm-36.81-39.322c-5.383 10.911-8.684 24.626-9.506 39.322h-15.687c2.193-16.526 11.717-30.759 25.193-39.322zm-25.193 53.912h15.687c.823 14.696 4.123 28.411 9.507 39.322-13.477-8.563-23.001-22.796-25.194-39.322zm84.223 39.322c5.383-10.911 8.684-24.626 9.506-39.322h15.687c-2.192 16.526-11.716 30.759-25.193 39.322z" fill="#3151ad" data-original="#000000" style="" class=""/><path d="m149.184 294.679c0-4.029-3.266-7.295-7.295-7.295h-96.32c-4.029 0-7.295 3.266-7.295 7.295s3.266 7.295 7.295 7.295h96.32c4.028 0 7.295-3.266 7.295-7.295z" fill="#3151ad" data-original="#000000" style="" class=""/><path d="m45.568 318.593c-4.029 0-7.295 3.266-7.295 7.295s3.266 7.295 7.295 7.295h29.55c4.029 0 7.295-3.266 7.295-7.295s-3.266-7.295-7.295-7.295z" fill="#3151ad" data-original="#000000" style="" class=""/></g></g></svg>
