<?xml version="1.0"?>
<svg xmlns="http://www.w3.org/2000/svg" xmlns:xlink="http://www.w3.org/1999/xlink" xmlns:svgjs="http://svgjs.com/svgjs" version="1.1" width="512" height="512" x="0" y="0" viewBox="0 0 512.003 512.003" style="enable-background:new 0 0 512 512" xml:space="preserve" class=""><g><g xmlns="http://www.w3.org/2000/svg"><path d="m467.573 265.846c0-63.149-55.547-111.996-118.63-103.467 1.189-12.381-4.794-26.234-15.836-34.066.966-2.417 1.512-5.045 1.512-7.802v-57.578c0-18.069-15.673-31.233-31.673-29.998-3.168.245-5.869-1.61-6.416-4.41-3.753-19.194-15.841-28.525-36.954-28.525h-20.546c-4.143 0-7.5 3.358-7.5 7.5s3.357 7.5 7.5 7.5h20.546c17.57 0 20.543 7.759 22.233 16.403 1.998 10.224 11.576 17.311 22.287 16.488 7.563-.59 15.522 5.991 15.522 15.042v57.579c0 11.782-24.57 5.768-24.57-12.353 0-4.064-2.754-7.592-6.697-8.581-3.939-.988-8.022.823-9.936 4.401-7.467 13.965-21.926 22.641-37.735 22.641-9.149 0-76.427 0-85.866 0-7.295 0-13.669-5.935-13.669-13.669v-55.176c0-23.586 19.189-42.775 42.775-42.775h20.109c4.143 0 7.5-3.358 7.5-7.5s-3.357-7.5-7.5-7.5h-20.109c-31.857 0-57.775 25.918-57.775 57.775v55.176c0 7.739 3.088 14.767 8.09 19.93-7.044 7.031-11.477 16.841-11.477 26.612 0 17.975 15.562 32.655 34.01 34.935 2.54 21.782 14.023 41.558 32.136 54.484v19.314c-.44.236-15.194 5.923-15.66 6.104h-43.843c-15.278 0-27.708 12.43-27.708 27.708v.031l-13.437 5.209c-.048.019-.095.038-.143.057-21.04 8.659-43.685 33.471-43.685 67.488v116.671c0 11.309 9.2 20.509 20.509 20.509h342.847c11.309 0 20.509-9.2 20.509-20.509v-44.638c0-4.142-3.357-7.5-7.5-7.5s-7.5 3.358-7.5 7.5v44.638c0 3.038-2.472 5.509-5.509 5.509h-21.378c.983-2.583 1.526-5.383 1.526-8.31v-11.719c0-6.014-4.878-10.907-10.874-10.907h-8.77c1.751-3.645 2.741-7.681 2.741-11.874v-84.213c14.099-1.045 27.637-4.896 39.972-11.27 1.522 5.262 2.291 10.656 2.291 16.113v37.033c0 4.142 3.357 7.5 7.5 7.5s7.5-3.358 7.5-7.5v-37.033c0-8.247-1.411-16.356-4.156-24.194 26.515-19.158 43.437-49.924 43.437-84.783zm-311.363-86.723c-10.308-2.279-18.452-10.444-18.452-19.629 0-7.017 4.281-14.595 10.289-18.687 2.999.729 5.281.814 8.163.814zm159.436-37.611c2.539-.257 5.1-1.061 7.105-2.038 8.924 4.973 13.841 17.47 10.006 26.414-5.903 1.786-11.624 4.101-17.111 6.909zm-144.436 43.66v-43.552h69.47c16.317 0 31.907-6.995 42.718-18.875 3.526 7.251 9.606 13.029 17.052 16.2.066.028.13.06.196.088v43.137c-21.071 15.807-34.584 38.094-39.656 61.968-40.207 16.514-89.78-11.181-89.78-58.966zm87.855 89.158h-56.298c.758-1.762 1.138-3.724 1.138-5.88v-11.138c16.2 6.846 36.408 8.844 54.939 3.454-.22 4.5-.147 9.034.221 13.564zm-142.371 27.708c0-7.007 5.701-12.708 12.708-12.708h131.98c9.613 41.723 44.314 76.124 94.649 80.7v84.165c0 5.25-3.333 10.002-8.215 11.874h-222.908c-4.882-1.872-8.214-6.623-8.214-11.874 0-19.293 0-148.043 0-152.157zm227.241-46.874 4.756 17.752c1.042 3.891 4.106 6.954 7.994 7.995l17.755 4.758c3.887 1.04 8.07-.08 10.919-2.927l26.759-26.76c2.687 38.972-45.661 60.792-72.874 31.37h-.001c-25.776-27.874-3.818-74.022 34.9-70.391l-27.283 27.283c-2.848 2.849-3.969 7.034-2.925 10.92zm-1.14 53.759-30.49 30.49c-8.975-6.232-16.576-13.857-22.713-22.739l30.488-30.489c.065.12.14.233.206.353 5.193 9.401 13.166 17.263 22.509 22.385zm-258.004 168.052v11.719c0 2.927.544 5.727 1.526 8.31h-21.378c-3.037 0-5.509-2.471-5.509-5.509v-116.672c0-28.904 20.499-47.863 34.323-53.588l7.94-3.078v136.038c0 4.193.99 8.229 2.741 11.874h-8.771c-5.995-.001-10.872 4.891-10.872 10.906zm288.143 4.093v7.625c0 4.579-3.654 8.304-8.148 8.31h-256.849c-4.493-.005-8.147-3.731-8.147-8.31v-7.625zm-47.135-133.935 32.482-32.482c40.718 8.559 76.163-27.454 67.698-67.62-1.953-9.266-13.433-12.689-20.135-5.989l-29.584 29.585-13.632-3.653-3.652-13.632 29.986-29.987c6.629-6.626 3.348-17.955-5.793-20.087-40.117-9.361-77.409 25.83-68.753 67.368l-32.532 32.532c-27.219-59.431 16.425-126.748 81.261-126.748 49.425 0 89.427 39.996 89.427 89.426.001 65.549-68.039 108.31-126.773 81.287z" fill="#3151ad" data-original="#000000" style="" class=""/><path d="m218.935 392.79h22.894c4.143 0 7.5-3.358 7.5-7.5s-3.357-7.5-7.5-7.5h-22.894c-4.143 0-7.5 3.358-7.5 7.5s3.357 7.5 7.5 7.5z" fill="#3151ad" data-original="#000000" style="" class=""/></g></g></svg>
